HIERARCHY
ROOT Hips
{
	OFFSET 0.00000 0.00000 0.00000
	CHANNELS 6 Xposition Yposition Zposition Zrotation Yrotation Xrotation 
	JOINT LHipJoint
	{
		OFFSET 0 0 0
		CHANNELS 3 Zrotation Yrotation Xrotation
		JOINT LeftUpLeg
		{
			OFFSET 1.64577 -1.42384 0.94276
			CHANNELS 3 Zrotation Yrotation Xrotation
			JOINT LeftLeg
			{
				OFFSET 2.11538 -5.81197 0.00000
				CHANNELS 3 Zrotation Yrotation Xrotation
				JOINT LeftFoot
				{
					OFFSET 2.36541 -6.49893 0.00000
					CHANNELS 3 Zrotation Yrotation Xrotation
					JOINT LeftToeBase
					{
						OFFSET 0.17759 -0.48793 1.73865
						CHANNELS 3 Zrotation Yrotation Xrotation
						End Site
						{
							OFFSET 0.00000 -0.00000 0.91205
						}
					}
				}
			}
		}
	}
	JOINT RHipJoint
	{
		OFFSET 0 0 0
		CHANNELS 3 Zrotation Yrotation Xrotation
		JOINT RightUpLeg
		{
			OFFSET -1.43750 -1.42384 0.94276
			CHANNELS 3 Zrotation Yrotation Xrotation
			JOINT RightLeg
			{
				OFFSET -2.10480 -5.78291 0.00000
				CHANNELS 3 Zrotation Yrotation Xrotation
				JOINT RightFoot
				{
					OFFSET -2.34880 -6.45329 0.00000
					CHANNELS 3 Zrotation Yrotation Xrotation
					JOINT RightToeBase
					{
						OFFSET -0.22842 -0.62757 1.80469
						CHANNELS 3 Zrotation Yrotation Xrotation
						End Site
						{
							OFFSET -0.00000 -0.00000 0.95886
						}
					}
				}
			}
		}
	}
	JOINT LowerBack
	{
		OFFSET 0 0 0
		CHANNELS 3 Zrotation Yrotation Xrotation
		JOINT Spine
		{
			OFFSET 0.06217 1.93758 -0.49272
			CHANNELS 3 Zrotation Yrotation Xrotation
			JOINT Spine1
			{
				OFFSET -0.03114 2.03621 -0.05830
				CHANNELS 3 Zrotation Yrotation Xrotation
				JOINT Neck
				{
					OFFSET 0 0 0
					CHANNELS 3 Zrotation Yrotation Xrotation
					JOINT Neck1
					{
						OFFSET 0.04421 1.41010 0.26562
						CHANNELS 3 Zrotation Yrotation Xrotation
						JOINT Head
						{
							OFFSET -0.13407 1.43847 0.06181
							CHANNELS 3 Zrotation Yrotation Xrotation
							End Site
							{
								OFFSET -0.04980 1.45844 -0.00689
							}
						}
					}
				}
				JOINT LeftShoulder
				{
					OFFSET 0 0 0
					CHANNELS 3 Zrotation Yrotation Xrotation
					JOINT LeftArm
					{
						OFFSET 2.18382 1.47753 -0.35694
						CHANNELS 3 Zrotation Yrotation Xrotation
						JOINT LeftForeArm
						{
							OFFSET 5.05460 -0.00000 0.00000
							CHANNELS 3 Zrotation Yrotation Xrotation
							JOINT LeftHand
							{
								OFFSET 3.39013 -0.00000 0.00000
								CHANNELS 3 Zrotation Yrotation Xrotation
								JOINT LeftFingerBase
								{
									OFFSET 0 0 0
									CHANNELS 3 Zrotation Yrotation Xrotation
									JOINT LeftHandIndex1
									{
										OFFSET 0.57242 -0.00000 -0.00000
										CHANNELS 3 Zrotation Yrotation Xrotation
										End Site
										{
											OFFSET 0.46150 -0.00000 -0.00000
										}
									}
								}
								JOINT LThumb
								{
									OFFSET 0 0 0
									CHANNELS 3 Zrotation Yrotation Xrotation
									End Site
									{
										OFFSET 0.46855 -0.00000 0.46855
									}
								}
							}
						}
					}
				}
				JOINT RightShoulder
				{
					OFFSET 0 0 0
					CHANNELS 3 Zrotation Yrotation Xrotation
					JOINT RightArm
					{
						OFFSET -2.06033 1.72839 -0.47437
						CHANNELS 3 Zrotation Yrotation Xrotation
						JOINT RightForeArm
						{
							OFFSET -5.07010 -0.00000 0.00000
							CHANNELS 3 Zrotation Yrotation Xrotation
							JOINT RightHand
							{
								OFFSET -3.14957 -0.00000 -0.00000
								CHANNELS 3 Zrotation Yrotation Xrotation
								JOINT RightFingerBase
								{
									OFFSET 0 0 0
									CHANNELS 3 Zrotation Yrotation Xrotation
									JOINT RightHandIndex1
									{
										OFFSET -0.71819 -0.00000 -0.00000
										CHANNELS 3 Zrotation Yrotation Xrotation
										End Site
										{
											OFFSET -0.57902 -0.00000 -0.00000
										}
									}
								}
								JOINT RThumb
								{
									OFFSET 0 0 0
									CHANNELS 3 Zrotation Yrotation Xrotation
									End Site
									{
										OFFSET -0.58786 -0.00000 0.58786
									}
								}
							}
						}
					}
				}
			}
		}
	}
}
MOTION
Frames: 15
Frame Time: .0083333
42.6628 13.9686 3.1128 559.8530 59.2478 547.1410 0.0000 0.0000 0.0000 -12.7725 -21.2642 -23.7826 11.0948 17.9812 63.0890 1.4681 4.0605 -24.6627 0.0237 0.9946 2.7340 0.0000 0.0000 0.0000 21.0396 22.1953 -28.5471 -8.4976 -16.4733 54.3358 -0.4583 -2.0994 -13.7258 -5.6747 14.1055 -43.6618 -0.8637 0.5682 19.7844 -1.7809 1.8477 11.0921 -1.7281 1.4786 0.9558 7.7018 7.1859 -7.6410 -10.8670 9.1773 -2.2267 -4.1256 4.4531 1.4549 -0.0000 -0.0000 0.0000 -82.0805 19.4401 31.1478 102.8646 -59.3653 -71.1173 -0.0000 0.0000 -26.4417 33.8059 9.2397 6.1365 -7.1250 0.0000 -0.0000 6.0990 40.9814 -0.6070 -0.0000 -0.0000 0.0000 78.3666 -17.9904 49.8948 -109.5317 58.5083 -76.8303 0.0000 -0.0000 -25.6273 -38.0669 10.6135 -8.2081 7.1250 -0.0000 -0.0000 -7.6330 -16.6670 -5.1696
42.9336 13.9540 3.1441 559.5700 57.9171 547.6660 0.0000 0.0000 0.0000 -12.1261 -22.5830 -23.9587 11.3670 18.1100 63.9676 1.6440 3.6856 -25.7813 0.0176 0.8558 2.3522 0.0000 0.0000 0.0000 19.8923 25.8212 -27.0206 -7.1164 -15.4291 49.3132 -0.5148 -0.4120 -13.7104 -6.1905 14.6104 -45.7414 -0.7707 0.4430 19.4005 -1.6379 1.6977 11.0571 -1.5902 1.3980 1.1030 8.9209 7.9118 -6.4709 -12.5770 10.0958 -3.4353 -4.8405 4.9492 1.1616 -0.0000 0.0000 0.0000 -82.5967 19.1405 30.6315 102.9768 -59.3540 -71.2139 -0.0000 0.0000 -26.7180 34.1286 9.2897 6.2440 -7.1250 0.0000 -0.0000 6.3892 41.0744 -0.6214 -0.0000 0.0000 0.0000 78.9476 -17.9688 49.6356 -109.1428 58.5691 -76.4985 0.0000 -0.0000 -25.4517 -38.1566 10.5210 -8.1642 7.1250 -0.0000 -0.0000 -7.7080 -16.7669 -5.2044
43.1976 13.9261 3.1780 559.8880 56.4732 548.4820 0.0000 0.0000 0.0000 -11.0926 -23.8113 -24.1015 11.6968 18.2595 65.0244 1.8354 3.1850 -26.8993 0.0086 0.5978 1.6428 0.0000 0.0000 0.0000 19.4978 28.9445 -25.2347 -6.0553 -14.4817 45.2031 -0.5346 0.3154 -13.7084 -6.4649 14.8642 -46.8203 -0.2490 0.2999 19.1615 -1.4281 1.5977 11.0414 -1.6380 1.3643 1.2063 10.2182 8.6337 -5.1395 -14.2844 11.0271 -4.6134 -5.5800 5.4677 0.8891 0.0000 -0.0000 0.0000 -82.9589 18.9287 30.3088 103.4363 -59.3067 -71.6091 -0.0000 0.0000 -27.0483 34.3469 9.1705 6.2155 -7.1250 0.0000 -0.0000 6.5827 40.9553 -0.6598 0.0000 -0.0000 0.0000 79.5140 -18.0180 49.3751 -108.9302 58.6017 -76.3171 0.0000 -0.0000 -25.0664 -38.1681 10.5807 -8.2128 7.1250 -0.0000 -0.0000 -7.7069 -16.6912 -5.2165
43.4519 13.8905 3.2153 560.6800 54.8551 549.2900 0.0000 0.0000 0.0000 -9.7995 -24.9621 -23.9574 12.0445 18.4094 66.1297 2.0254 2.6179 -27.9335 0.0010 0.2041 0.5606 0.0000 0.0000 0.0000 20.0552 30.9210 -23.2618 -5.3420 -13.7589 42.2800 -0.5444 0.3403 -13.8271 -6.2567 14.6726 -46.0036 0.7097 0.1144 19.2386 -1.1594 1.5318 11.0810 -1.8852 1.3771 1.2188 11.5689 9.3565 -3.7903 -15.9683 11.9879 -5.6396 -6.3240 6.0090 0.6965 -0.0000 0.0000 0.0000 -83.1012 18.7846 30.2670 104.1316 -59.2318 -72.2067 -0.0000 0.0000 -27.3694 34.4987 8.9845 6.1259 -7.1250 0.0000 -0.0000 6.7144 40.7491 -0.7074 -0.0000 0.0000 0.0000 80.0908 -18.1521 49.0890 -108.9370 58.6007 -76.3229 0.0000 -0.0000 -24.6021 -38.1339 10.7034 -8.2955 7.1250 -0.0000 -0.0000 -7.6650 -16.5451 -5.2122
43.6929 13.8565 3.2544 561.9640 53.1347 550.0800 0.0000 0.0000 0.0000 -8.2526 -25.9951 -23.4462 12.3692 18.5424 67.1545 2.2045 1.9990 -28.8431 0.0017 -0.2661 -0.7310 0.0000 0.0000 0.0000 21.6428 31.3696 -21.3749 -4.9277 -13.3019 40.5094 -0.5515 0.1764 -13.9729 -5.7007 14.1319 -43.7682 2.1307 -0.1101 19.6841 -0.8314 1.5246 11.1622 -2.3509 1.4500 1.1051 12.8989 10.0843 -2.5163 -17.5767 12.9901 -6.4645 -7.0353 6.5734 0.6072 -0.0000 0.0000 0.0000 -83.0208 18.7153 30.5060 104.8958 -59.1448 -72.8631 -0.0000 0.0000 -27.5898 34.6289 8.8680 6.0769 -7.1250 0.0000 -0.0000 6.8275 40.6231 -0.7408 -0.0000 0.0000 0.0000 80.6738 -18.3485 48.7971 -109.1297 58.5711 -76.4873 0.0000 -0.0000 -24.1848 -38.0845 10.7992 -8.3532 7.1250 -0.0000 -0.0000 -7.6170 -16.4349 -5.1974
43.9234 13.8333 3.2960 563.2510 51.3575 550.5000 0.0000 0.0000 0.0000 -6.7937 -26.9824 -22.4909 12.6207 18.6409 67.9431 2.3627 1.3941 -29.6064 0.0132 -0.7424 -2.0402 0.0000 0.0000 0.0000 23.7314 30.3914 -19.7897 -4.7345 -13.0784 39.6625 -0.5688 0.0406 -14.2378 -5.1881 13.5925 -41.6291 3.6555 -0.3598 20.4257 -0.4926 1.5572 11.2864 -2.8786 1.5577 0.9030 14.1298 10.8247 -1.3647 -19.0538 14.0409 -7.1184 -7.6767 7.1615 0.6103 -0.0000 0.0000 0.0000 -82.7757 18.7010 30.9532 105.5581 -59.0653 -73.4314 -0.0000 0.0000 -27.6550 34.8810 9.0167 6.2350 -7.1250 0.0000 -0.0000 7.0573 40.8270 -0.7304 -0.0000 0.0000 0.0000 81.2174 -18.5434 48.5526 -109.4017 58.5288 -76.7194 0.0000 -0.0000 -23.8596 -38.0436 10.8184 -8.3555 7.1250 -0.0000 -0.0000 -7.5863 -16.4179 -5.1788
44.1417 13.8202 3.3375 564.5700 49.7537 550.8120 0.0000 0.0000 0.0000 -5.3531 -27.8150 -21.3637 12.7975 18.7078 68.4953 2.5011 0.8116 -30.2448 0.0309 -1.1347 -3.1196 0.0000 0.0000 0.0000 25.9499 28.5951 -18.6708 -4.6581 -12.9881 39.3241 -0.5963 0.1068 -14.5557 -4.6843 13.0192 -39.4404 5.2052 -0.5595 21.2861 -0.1597 1.7064 11.4015 -3.4531 1.7275 0.6550 15.2521 11.5654 -0.3125 -20.4209 15.1146 -7.6955 -8.2546 7.7629 0.6695 0.0000 -0.0000 0.0000 -82.4484 18.7385 31.5009 106.0834 -58.9997 -73.8819 -0.0000 0.0000 -27.5764 34.9169 9.3258 6.4538 -7.1250 0.0000 -0.0000 7.0988 41.2011 -0.6689 0.0000 -0.0000 0.0000 81.6815 -18.6685 48.3823 -109.6251 58.4935 -76.9099 0.0000 -0.0000 -23.5845 -38.0117 10.7648 -8.3058 7.1250 -0.0000 -0.0000 -7.5727 -16.4892 -5.1576
44.3536 13.8234 3.3796 565.5100 48.2101 550.8500 0.0000 0.0000 0.0000 -4.1690 -28.6819 -20.1680 12.8849 18.7402 68.7675 2.6124 0.3012 -30.7394 0.0496 -1.4368 -3.9514 0.0000 0.0000 0.0000 27.8403 26.3793 -17.9893 -4.6223 -12.9454 39.1645 -0.6208 0.0481 -14.8741 -4.6538 12.9830 -39.3050 6.4594 -0.7162 22.0584 0.1306 1.8823 11.5081 -3.9097 1.8979 0.4486 16.2513 12.2916 0.6962 -21.6679 16.1805 -8.3076 -8.7711 8.3663 0.7321 0.0000 -0.0000 0.0000 -82.1181 18.8126 32.0476 106.4014 -58.9587 -74.1544 -0.0000 0.0000 -27.4049 34.8955 9.6325 6.6569 -7.1250 0.0000 -0.0000 7.0879 41.5660 -0.6038 0.0000 -0.0000 0.0000 82.0322 -18.6768 48.3237 -109.6947 58.4824 -76.9692 0.0000 -0.0000 -23.2829 -37.9709 10.6809 -8.2308 7.1250 -0.0000 -0.0000 -7.5576 -16.5994 -5.1288
44.5572 13.8403 3.4213 566.8160 46.7596 551.2830 0.0000 0.0000 0.0000 -2.5875 -29.4113 -19.1600 12.9199 18.7530 68.8765 2.7039 -0.2604 -31.1005 0.0658 -1.6555 -4.5546 0.0000 0.0000 0.0000 29.8817 24.2600 -17.5424 -4.5584 -12.8686 38.8784 -0.6198 -0.3476 -15.0049 -5.1334 13.5325 -41.3959 7.8522 -0.8323 22.6934 0.4870 2.1470 11.5710 -4.3887 2.1128 0.2892 17.0947 12.9773 1.6872 -22.7637 17.1916 -9.0128 -9.2206 8.9502 0.7571 0.0000 0.0000 0.0000 -81.8224 18.9086 32.5522 106.5140 -58.9441 -74.2508 -0.0000 0.0000 -27.2171 34.7288 9.9704 6.8437 -7.1250 0.0000 -0.0000 6.9447 41.9511 -0.5252 0.0000 0.0000 0.0000 82.2617 -18.5696 48.3587 -109.5867 58.4996 -76.8771 0.0000 -0.0000 -22.9162 -37.9096 10.6214 -8.1683 7.1250 -0.0000 -0.0000 -7.5247 -16.6827 -5.0923
44.7531 13.8673 3.4634 568.1970 45.3911 551.8960 0.0000 0.0000 0.0000 -0.8002 -30.0279 -18.3828 12.9157 18.7515 68.8635 2.7755 -0.8588 -31.3403 0.0782 -1.8034 -4.9627 0.0000 0.0000 0.0000 31.9298 22.4036 -17.1442 -4.4451 -12.7303 38.3671 -0.5921 -0.9376 -14.9047 -5.8597 14.2910 -44.4159 9.2098 -0.8829 23.1847 0.8641 2.4909 11.5885 -4.8372 2.3597 0.1733 17.7828 13.6039 2.6427 -23.6994 18.1142 -9.7925 -9.6042 9.4949 0.7374 -0.0000 -0.0000 0.0000 -81.5670 19.0134 33.0118 106.4665 -58.9503 -74.2101 -0.0000 0.0000 -27.0632 34.3579 10.2553 6.9394 -7.1250 0.0000 -0.0000 6.6118 42.2478 -0.4511 -0.0000 -0.0000 0.0000 82.3941 -18.3881 48.4472 -109.3460 58.5375 -76.6718 0.0000 -0.0000 -22.5219 -37.8252 10.6248 -8.1464 7.1250 -0.0000 -0.0000 -7.4666 -16.6920 -5.0509
44.9403 13.9043 3.5056 569.9890 43.9305 552.9000 0.0000 0.0000 0.0000 1.5474 -30.5376 -17.9299 12.8953 18.7440 68.8001 2.8276 -1.5732 -31.4447 0.0864 -1.8960 -5.2183 0.0000 0.0000 0.0000 34.3214 20.8072 -16.7222 -4.2757 -12.5185 37.5920 -0.5453 -1.6102 -14.6245 -6.5699 14.9587 -47.2281 10.8489 -0.9478 23.5606 1.3241 2.8815 11.5455 -5.3580 2.6347 0.0848 18.3418 14.1713 3.5455 -24.5049 18.9462 -10.6057 -9.9346 9.9965 0.6861 -0.0000 0.0000 0.0000 -81.3226 19.1337 33.4596 106.3615 -58.9639 -74.1202 -0.0000 0.0000 -26.9735 33.9183 10.4580 6.9589 -7.1250 0.0000 -0.0000 6.2124 42.4367 -0.3946 -0.0000 0.0000 0.0000 82.4573 -18.1905 48.5625 -109.0718 58.5800 -76.4379 0.0000 -0.0000 -22.1779 -37.7214 10.6983 -8.1711 7.1250 -0.0000 -0.0000 -7.3850 -16.6182 -5.0066
45.1190 13.9414 3.5496 571.7530 42.3250 553.8960 0.0000 0.0000 0.0000 4.1024 -31.0148 -17.7771 12.8582 18.7304 68.6847 2.8489 -2.3213 -31.3802 0.0912 -1.9475 -5.3607 0.0000 0.0000 0.0000 36.7565 19.4679 -16.2088 -4.0850 -12.2726 36.7034 -0.5139 -2.2754 -14.5598 -6.9377 15.2792 -48.6383 12.5569 -1.0336 23.8819 1.7918 3.2752 11.4543 -5.9026 2.9090 -0.0058 18.7796 14.6685 4.3157 -25.1623 19.6680 -11.3685 -10.2009 10.4363 0.6281 -0.0000 0.0000 0.0000 -81.0679 19.2611 33.9119 106.2707 -58.9757 -74.0423 -0.0000 0.0000 -26.9267 33.4789 10.6326 6.9572 -7.1250 0.0000 -0.0000 5.8108 42.5911 -0.3467 -0.0000 0.0000 0.0000 82.4990 -18.0292 48.6608 -108.8652 58.6116 -76.2615 0.0000 -0.0000 -21.9484 -37.6094 10.8140 -8.2244 7.1250 -0.0000 -0.0000 -7.2917 -16.4940 -4.9621
45.2871 13.9809 3.5909 573.1300 40.6209 554.7820 0.0000 0.0000 0.0000 6.5813 -31.4678 -18.0547 12.7916 18.7056 68.4769 2.8366 -2.9462 -31.1677 0.0946 -1.9835 -5.4601 0.0000 0.0000 0.0000 38.8887 18.4047 -15.8701 -3.9074 -12.0362 35.8601 -0.4920 -3.0300 -14.7033 -7.0678 15.3887 -49.1303 14.1852 -1.0927 23.9749 2.1704 3.6479 11.2887 -6.4792 3.1598 -0.0529 19.0919 15.0638 4.9437 -25.6641 20.2346 -12.0549 -10.4065 10.7890 0.5553 0.0000 -0.0000 0.0000 -80.8142 19.4124 34.3218 106.1515 -58.9910 -73.9402 -0.0000 0.0000 -26.8443 33.0292 10.7266 6.8995 -7.1250 0.0000 -0.0000 5.3987 42.6484 -0.3143 0.0000 -0.0000 0.0000 82.5634 -17.9358 48.7156 -108.7918 58.6227 -76.1989 0.0000 -0.0000 -21.8549 -37.5136 10.9310 -8.2827 7.1250 -0.0000 -0.0000 -7.2092 -16.3657 -4.9253
45.4472 14.0362 3.6269 573.2570 38.8397 555.0710 0.0000 0.0000 0.0000 8.1322 -32.0854 -18.6221 12.6382 18.6476 67.9979 2.7883 -3.1949 -30.8368 0.0962 -2.0000 -5.5057 0.0000 0.0000 0.0000 39.9598 17.5947 -15.9828 -3.7968 -11.8850 35.3264 -0.4762 -3.8783 -15.0350 -7.0888 15.4062 -49.2094 15.1393 -1.0611 23.6485 2.3122 3.8697 11.0872 -6.8842 3.3002 0.0039 19.2661 15.3594 5.4351 -26.0042 20.6466 -12.6646 -10.5503 11.0541 0.4597 0.0000 -0.0000 0.0000 -80.6261 19.5909 34.5980 105.9790 -59.0129 -73.7923 -0.0000 0.0000 -26.6711 32.8293 10.7721 6.8759 -7.1250 0.0000 -0.0000 5.2152 42.6782 -0.2997 0.0000 -0.0000 0.0000 82.6236 -17.8976 48.7608 -108.8641 58.6118 -76.2606 0.0000 -0.0000 -21.8724 -37.4648 11.0233 -8.3364 7.1250 -0.0000 -0.0000 -7.1624 -16.2605 -4.9093
45.5980 14.1016 3.6564 572.2980 37.1971 554.9410 0.0000 0.0000 0.0000 8.7414 -32.6724 -19.4286 12.4080 18.5578 67.2763 2.7168 -3.1008 -30.4426 0.0893 -1.9279 -5.3064 0.0000 0.0000 0.0000 40.0098 17.1676 -16.4926 -3.7571 -11.8300 35.1331 -0.4630 -4.7823 -15.4997 -7.0215 15.3500 -48.9556 15.3656 -0.8608 22.9697 2.2093 4.0260 10.8582 -7.1227 3.3698 0.1469 19.3440 15.5580 5.7993 -26.2232 20.9127 -13.1836 -10.6505 11.2357 0.3524 0.0000 0.0000 0.0000 -80.5081 19.7943 34.7154 105.7789 -59.0380 -73.6208 -0.0000 0.0000 -26.4432 32.5842 10.7474 6.7968 -7.1250 0.0000 -0.0000 4.9913 42.6206 -0.2938 0.0000 0.0000 0.0000 82.6730 -17.8859 48.8015 -109.0504 58.5833 -76.4197 0.0000 -0.0000 -21.9453 -37.4737 11.0905 -8.3885 7.1250 -0.0000 -0.0000 -7.1585 -16.1766 -4.9197
